<mxfile host="app.diagrams.net" modified="2023-06-02T03:08:07.334Z" agent="Mozilla/5.0 (Windows NT 10.0; Win64; x64) AppleWebKit/537.36 (KHTML, like Gecko) Chrome/113.0.0.0 Safari/537.36 Edg/113.0.1774.57" etag="cZJEz77a4zsCcFk7Uf40" version="21.3.6" type="github">
  <diagram id="R2lEEEUBdFMjLlhIrx00" name="Page-1">
    <mxGraphModel dx="1379" dy="1888" grid="1" gridSize="10" guides="1" tooltips="1" connect="1" arrows="1" fold="1" page="1" pageScale="1" pageWidth="850" pageHeight="1100" math="0" shadow="0" extFonts="Permanent Marker^https://fonts.googleapis.com/css?family=Permanent+Marker">
      <root>
        <mxCell id="0" />
        <mxCell id="1" parent="0" />
        <mxCell id="hJJ5cxdDLMS1EZ1irEGg-6" style="edgeStyle=orthogonalEdgeStyle;rounded=0;orthogonalLoop=1;jettySize=auto;html=1;entryX=1;entryY=0.5;entryDx=0;entryDy=0;endArrow=none;endFill=0;" parent="1" source="hJJ5cxdDLMS1EZ1irEGg-1" target="hJJ5cxdDLMS1EZ1irEGg-3" edge="1">
          <mxGeometry relative="1" as="geometry" />
        </mxCell>
        <mxCell id="hJJ5cxdDLMS1EZ1irEGg-1" value="学生" style="rounded=0;whiteSpace=wrap;html=1;" parent="1" vertex="1">
          <mxGeometry x="350" y="140" width="115" height="60" as="geometry" />
        </mxCell>
        <mxCell id="hJJ5cxdDLMS1EZ1irEGg-3" value="学号id" style="ellipse;whiteSpace=wrap;html=1;" parent="1" vertex="1">
          <mxGeometry x="130" y="130" width="120" height="80" as="geometry" />
        </mxCell>
        <mxCell id="hJJ5cxdDLMS1EZ1irEGg-7" value="总学分totalCredit&lt;br&gt;" style="ellipse;whiteSpace=wrap;html=1;rounded=0;" parent="1" vertex="1">
          <mxGeometry x="340" y="280" width="119.5" height="80" as="geometry" />
        </mxCell>
        <mxCell id="hJJ5cxdDLMS1EZ1irEGg-9" value="姓名name" style="ellipse;whiteSpace=wrap;html=1;" parent="1" vertex="1">
          <mxGeometry x="140" y="250" width="120" height="80" as="geometry" />
        </mxCell>
        <mxCell id="hJJ5cxdDLMS1EZ1irEGg-11" value="" style="endArrow=none;html=1;rounded=0;" parent="1" edge="1">
          <mxGeometry width="50" height="50" relative="1" as="geometry">
            <mxPoint x="260" y="270" as="sourcePoint" />
            <mxPoint x="350" y="200" as="targetPoint" />
          </mxGeometry>
        </mxCell>
        <mxCell id="hJJ5cxdDLMS1EZ1irEGg-12" value="" style="endArrow=none;html=1;rounded=0;" parent="1" edge="1">
          <mxGeometry width="50" height="50" relative="1" as="geometry">
            <mxPoint x="407" y="270" as="sourcePoint" />
            <mxPoint x="407" y="210" as="targetPoint" />
            <Array as="points">
              <mxPoint x="407" y="240" />
            </Array>
          </mxGeometry>
        </mxCell>
        <mxCell id="hJJ5cxdDLMS1EZ1irEGg-13" value="" style="endArrow=none;html=1;rounded=0;" parent="1" edge="1">
          <mxGeometry width="50" height="50" relative="1" as="geometry">
            <mxPoint x="465" y="210" as="sourcePoint" />
            <mxPoint x="520" y="280" as="targetPoint" />
          </mxGeometry>
        </mxCell>
        <mxCell id="hJJ5cxdDLMS1EZ1irEGg-14" value="性别 gender" style="ellipse;whiteSpace=wrap;html=1;" parent="1" vertex="1">
          <mxGeometry x="480" y="280" width="120" height="80" as="geometry" />
        </mxCell>
        <mxCell id="hJJ5cxdDLMS1EZ1irEGg-15" value="" style="endArrow=none;html=1;rounded=0;" parent="1" edge="1">
          <mxGeometry width="50" height="50" relative="1" as="geometry">
            <mxPoint x="480" y="190" as="sourcePoint" />
            <mxPoint x="640" y="220" as="targetPoint" />
          </mxGeometry>
        </mxCell>
        <mxCell id="hJJ5cxdDLMS1EZ1irEGg-16" value="班级编号ClassId" style="ellipse;whiteSpace=wrap;html=1;" parent="1" vertex="1">
          <mxGeometry x="600" y="230" width="120" height="80" as="geometry" />
        </mxCell>
        <mxCell id="hJJ5cxdDLMS1EZ1irEGg-17" value="" style="endArrow=none;html=1;rounded=0;" parent="1" edge="1">
          <mxGeometry width="50" height="50" relative="1" as="geometry">
            <mxPoint x="490" y="160" as="sourcePoint" />
            <mxPoint x="650" y="160" as="targetPoint" />
          </mxGeometry>
        </mxCell>
        <mxCell id="hJJ5cxdDLMS1EZ1irEGg-18" value="年龄age" style="ellipse;whiteSpace=wrap;html=1;" parent="1" vertex="1">
          <mxGeometry x="660" y="130" width="120" height="80" as="geometry" />
        </mxCell>
        <mxCell id="hJJ5cxdDLMS1EZ1irEGg-19" value="" style="endArrow=none;html=1;rounded=0;" parent="1" edge="1">
          <mxGeometry width="50" height="50" relative="1" as="geometry">
            <mxPoint x="450" y="130" as="sourcePoint" />
            <mxPoint x="570" y="90" as="targetPoint" />
          </mxGeometry>
        </mxCell>
        <mxCell id="hJJ5cxdDLMS1EZ1irEGg-20" value="出生日期birthDate" style="ellipse;whiteSpace=wrap;html=1;" parent="1" vertex="1">
          <mxGeometry x="580" y="30" width="120" height="80" as="geometry" />
        </mxCell>
        <mxCell id="hJJ5cxdDLMS1EZ1irEGg-21" value="" style="endArrow=none;html=1;rounded=0;" parent="1" edge="1">
          <mxGeometry width="50" height="50" relative="1" as="geometry">
            <mxPoint x="370" y="120" as="sourcePoint" />
            <mxPoint x="280" y="90" as="targetPoint" />
          </mxGeometry>
        </mxCell>
        <mxCell id="hJJ5cxdDLMS1EZ1irEGg-22" value="家庭地址address" style="ellipse;whiteSpace=wrap;html=1;" parent="1" vertex="1">
          <mxGeometry x="140" y="30" width="120" height="80" as="geometry" />
        </mxCell>
        <mxCell id="hJJ5cxdDLMS1EZ1irEGg-23" value="" style="endArrow=none;html=1;rounded=0;" parent="1" edge="1">
          <mxGeometry width="50" height="50" relative="1" as="geometry">
            <mxPoint x="407" y="120" as="sourcePoint" />
            <mxPoint x="407" y="60" as="targetPoint" />
            <Array as="points">
              <mxPoint x="407" y="90" />
            </Array>
          </mxGeometry>
        </mxCell>
        <mxCell id="hJJ5cxdDLMS1EZ1irEGg-24" value="入学时间admissionTime" style="ellipse;whiteSpace=wrap;html=1;" parent="1" vertex="1">
          <mxGeometry x="350" y="20" width="110" height="50" as="geometry" />
        </mxCell>
        <mxCell id="mxAn8L0b2jyymD9nRvfy-1" style="edgeStyle=orthogonalEdgeStyle;rounded=0;orthogonalLoop=1;jettySize=auto;html=1;entryX=1;entryY=0.5;entryDx=0;entryDy=0;endArrow=none;endFill=0;" edge="1" parent="1" source="mxAn8L0b2jyymD9nRvfy-2" target="mxAn8L0b2jyymD9nRvfy-3">
          <mxGeometry relative="1" as="geometry" />
        </mxCell>
        <mxCell id="mxAn8L0b2jyymD9nRvfy-2" value="班级" style="rounded=0;whiteSpace=wrap;html=1;" vertex="1" parent="1">
          <mxGeometry x="340" y="510" width="115" height="60" as="geometry" />
        </mxCell>
        <mxCell id="mxAn8L0b2jyymD9nRvfy-3" value="班级编号classId" style="ellipse;whiteSpace=wrap;html=1;" vertex="1" parent="1">
          <mxGeometry x="120" y="500" width="120" height="80" as="geometry" />
        </mxCell>
        <mxCell id="mxAn8L0b2jyymD9nRvfy-4" value="班级名称className" style="ellipse;whiteSpace=wrap;html=1;rounded=0;" vertex="1" parent="1">
          <mxGeometry x="330" y="650" width="119.5" height="80" as="geometry" />
        </mxCell>
        <mxCell id="mxAn8L0b2jyymD9nRvfy-7" value="" style="endArrow=none;html=1;rounded=0;" edge="1" parent="1">
          <mxGeometry width="50" height="50" relative="1" as="geometry">
            <mxPoint x="397" y="640" as="sourcePoint" />
            <mxPoint x="397" y="580" as="targetPoint" />
            <Array as="points">
              <mxPoint x="397" y="610" />
            </Array>
          </mxGeometry>
        </mxCell>
        <mxCell id="mxAn8L0b2jyymD9nRvfy-12" value="" style="endArrow=none;html=1;rounded=0;" edge="1" parent="1">
          <mxGeometry width="50" height="50" relative="1" as="geometry">
            <mxPoint x="480" y="530" as="sourcePoint" />
            <mxPoint x="640" y="530" as="targetPoint" />
          </mxGeometry>
        </mxCell>
        <mxCell id="mxAn8L0b2jyymD9nRvfy-13" value="人数 number" style="ellipse;whiteSpace=wrap;html=1;" vertex="1" parent="1">
          <mxGeometry x="650" y="500" width="120" height="80" as="geometry" />
        </mxCell>
        <mxCell id="mxAn8L0b2jyymD9nRvfy-20" value="选课信息" style="rounded=0;whiteSpace=wrap;html=1;" vertex="1" parent="1">
          <mxGeometry x="340" y="780" width="115" height="60" as="geometry" />
        </mxCell>
        <mxCell id="mxAn8L0b2jyymD9nRvfy-21" value="课程编号courseId" style="ellipse;whiteSpace=wrap;html=1;" vertex="1" parent="1">
          <mxGeometry x="200" y="870" width="120" height="80" as="geometry" />
        </mxCell>
        <mxCell id="mxAn8L0b2jyymD9nRvfy-22" value="学生学号studentId" style="ellipse;whiteSpace=wrap;html=1;rounded=0;" vertex="1" parent="1">
          <mxGeometry x="490" y="880" width="119.5" height="80" as="geometry" />
        </mxCell>
        <mxCell id="mxAn8L0b2jyymD9nRvfy-26" style="edgeStyle=orthogonalEdgeStyle;rounded=0;orthogonalLoop=1;jettySize=auto;html=1;entryX=1;entryY=0.5;entryDx=0;entryDy=0;endArrow=none;endFill=0;" edge="1" parent="1" source="mxAn8L0b2jyymD9nRvfy-27" target="mxAn8L0b2jyymD9nRvfy-28">
          <mxGeometry relative="1" as="geometry" />
        </mxCell>
        <mxCell id="mxAn8L0b2jyymD9nRvfy-27" value="教师" style="rounded=0;whiteSpace=wrap;html=1;" vertex="1" parent="1">
          <mxGeometry x="320" y="-290" width="115" height="60" as="geometry" />
        </mxCell>
        <mxCell id="mxAn8L0b2jyymD9nRvfy-28" value="教师编号teacherId" style="ellipse;whiteSpace=wrap;html=1;" vertex="1" parent="1">
          <mxGeometry x="100" y="-300" width="120" height="80" as="geometry" />
        </mxCell>
        <mxCell id="mxAn8L0b2jyymD9nRvfy-29" value="姓名teacherName" style="ellipse;whiteSpace=wrap;html=1;rounded=0;" vertex="1" parent="1">
          <mxGeometry x="310" y="-150" width="119.5" height="80" as="geometry" />
        </mxCell>
        <mxCell id="mxAn8L0b2jyymD9nRvfy-30" value="班级编号classId" style="ellipse;whiteSpace=wrap;html=1;" vertex="1" parent="1">
          <mxGeometry x="110" y="-180" width="120" height="80" as="geometry" />
        </mxCell>
        <mxCell id="mxAn8L0b2jyymD9nRvfy-31" value="" style="endArrow=none;html=1;rounded=0;" edge="1" parent="1">
          <mxGeometry width="50" height="50" relative="1" as="geometry">
            <mxPoint x="230" y="-160" as="sourcePoint" />
            <mxPoint x="320" y="-230" as="targetPoint" />
          </mxGeometry>
        </mxCell>
        <mxCell id="mxAn8L0b2jyymD9nRvfy-32" value="" style="endArrow=none;html=1;rounded=0;" edge="1" parent="1">
          <mxGeometry width="50" height="50" relative="1" as="geometry">
            <mxPoint x="377" y="-160" as="sourcePoint" />
            <mxPoint x="377" y="-220" as="targetPoint" />
            <Array as="points">
              <mxPoint x="377" y="-190" />
            </Array>
          </mxGeometry>
        </mxCell>
        <mxCell id="mxAn8L0b2jyymD9nRvfy-33" value="" style="endArrow=none;html=1;rounded=0;" edge="1" parent="1">
          <mxGeometry width="50" height="50" relative="1" as="geometry">
            <mxPoint x="435" y="-220" as="sourcePoint" />
            <mxPoint x="490" y="-150" as="targetPoint" />
          </mxGeometry>
        </mxCell>
        <mxCell id="mxAn8L0b2jyymD9nRvfy-34" value="性别 gender" style="ellipse;whiteSpace=wrap;html=1;" vertex="1" parent="1">
          <mxGeometry x="450" y="-150" width="120" height="80" as="geometry" />
        </mxCell>
        <mxCell id="mxAn8L0b2jyymD9nRvfy-37" value="" style="endArrow=none;html=1;rounded=0;" edge="1" parent="1">
          <mxGeometry width="50" height="50" relative="1" as="geometry">
            <mxPoint x="460" y="-270" as="sourcePoint" />
            <mxPoint x="620" y="-270" as="targetPoint" />
          </mxGeometry>
        </mxCell>
        <mxCell id="mxAn8L0b2jyymD9nRvfy-38" value="年龄age" style="ellipse;whiteSpace=wrap;html=1;" vertex="1" parent="1">
          <mxGeometry x="630" y="-300" width="120" height="80" as="geometry" />
        </mxCell>
        <mxCell id="mxAn8L0b2jyymD9nRvfy-39" value="" style="endArrow=none;html=1;rounded=0;" edge="1" parent="1">
          <mxGeometry width="50" height="50" relative="1" as="geometry">
            <mxPoint x="420" y="-300" as="sourcePoint" />
            <mxPoint x="540" y="-340" as="targetPoint" />
          </mxGeometry>
        </mxCell>
        <mxCell id="mxAn8L0b2jyymD9nRvfy-40" value="出生日期birthDate" style="ellipse;whiteSpace=wrap;html=1;" vertex="1" parent="1">
          <mxGeometry x="550" y="-400" width="120" height="80" as="geometry" />
        </mxCell>
        <mxCell id="mxAn8L0b2jyymD9nRvfy-41" value="" style="endArrow=none;html=1;rounded=0;" edge="1" parent="1">
          <mxGeometry width="50" height="50" relative="1" as="geometry">
            <mxPoint x="340" y="-310" as="sourcePoint" />
            <mxPoint x="250" y="-340" as="targetPoint" />
          </mxGeometry>
        </mxCell>
        <mxCell id="mxAn8L0b2jyymD9nRvfy-42" value="家庭地址address" style="ellipse;whiteSpace=wrap;html=1;" vertex="1" parent="1">
          <mxGeometry x="110" y="-400" width="120" height="80" as="geometry" />
        </mxCell>
        <mxCell id="mxAn8L0b2jyymD9nRvfy-43" value="" style="endArrow=none;html=1;rounded=0;" edge="1" parent="1">
          <mxGeometry width="50" height="50" relative="1" as="geometry">
            <mxPoint x="377" y="-310" as="sourcePoint" />
            <mxPoint x="377" y="-370" as="targetPoint" />
            <Array as="points">
              <mxPoint x="377" y="-340" />
            </Array>
          </mxGeometry>
        </mxCell>
        <mxCell id="mxAn8L0b2jyymD9nRvfy-44" value="入职时间entryTime" style="ellipse;whiteSpace=wrap;html=1;" vertex="1" parent="1">
          <mxGeometry x="320" y="-410" width="110" height="50" as="geometry" />
        </mxCell>
        <mxCell id="mxAn8L0b2jyymD9nRvfy-45" value="" style="endArrow=none;html=1;rounded=0;" edge="1" parent="1">
          <mxGeometry width="50" height="50" relative="1" as="geometry">
            <mxPoint x="300" y="890" as="sourcePoint" />
            <mxPoint x="350" y="840" as="targetPoint" />
          </mxGeometry>
        </mxCell>
        <mxCell id="mxAn8L0b2jyymD9nRvfy-46" value="" style="endArrow=none;html=1;rounded=0;" edge="1" parent="1" target="mxAn8L0b2jyymD9nRvfy-22">
          <mxGeometry width="50" height="50" relative="1" as="geometry">
            <mxPoint x="460" y="840" as="sourcePoint" />
            <mxPoint x="510" y="790" as="targetPoint" />
          </mxGeometry>
        </mxCell>
        <mxCell id="mxAn8L0b2jyymD9nRvfy-47" value="课程成绩" style="rounded=0;whiteSpace=wrap;html=1;" vertex="1" parent="1">
          <mxGeometry x="340" y="1020" width="115" height="60" as="geometry" />
        </mxCell>
        <mxCell id="mxAn8L0b2jyymD9nRvfy-48" value="课程编号courseId" style="ellipse;whiteSpace=wrap;html=1;" vertex="1" parent="1">
          <mxGeometry x="180" y="1140" width="120" height="80" as="geometry" />
        </mxCell>
        <mxCell id="mxAn8L0b2jyymD9nRvfy-49" value="学生学号studentId" style="ellipse;whiteSpace=wrap;html=1;rounded=0;" vertex="1" parent="1">
          <mxGeometry x="350" y="1160" width="119.5" height="80" as="geometry" />
        </mxCell>
        <mxCell id="mxAn8L0b2jyymD9nRvfy-50" value="" style="endArrow=none;html=1;rounded=0;exitX=0.792;exitY=0.025;exitDx=0;exitDy=0;exitPerimeter=0;" edge="1" parent="1" source="mxAn8L0b2jyymD9nRvfy-48">
          <mxGeometry width="50" height="50" relative="1" as="geometry">
            <mxPoint x="300" y="1130" as="sourcePoint" />
            <mxPoint x="350" y="1080" as="targetPoint" />
          </mxGeometry>
        </mxCell>
        <mxCell id="mxAn8L0b2jyymD9nRvfy-51" value="" style="endArrow=none;html=1;rounded=0;exitX=0.678;exitY=1.05;exitDx=0;exitDy=0;exitPerimeter=0;" edge="1" parent="1" target="mxAn8L0b2jyymD9nRvfy-49" source="mxAn8L0b2jyymD9nRvfy-47">
          <mxGeometry width="50" height="50" relative="1" as="geometry">
            <mxPoint x="460" y="1080" as="sourcePoint" />
            <mxPoint x="510" y="1030" as="targetPoint" />
          </mxGeometry>
        </mxCell>
        <mxCell id="mxAn8L0b2jyymD9nRvfy-52" value="成绩score" style="ellipse;whiteSpace=wrap;html=1;rounded=0;" vertex="1" parent="1">
          <mxGeometry x="510.5" y="1150" width="119.5" height="80" as="geometry" />
        </mxCell>
        <mxCell id="mxAn8L0b2jyymD9nRvfy-53" value="" style="endArrow=none;html=1;rounded=0;" edge="1" parent="1" target="mxAn8L0b2jyymD9nRvfy-52">
          <mxGeometry width="50" height="50" relative="1" as="geometry">
            <mxPoint x="460" y="1070" as="sourcePoint" />
            <mxPoint x="510" y="1040" as="targetPoint" />
          </mxGeometry>
        </mxCell>
      </root>
    </mxGraphModel>
  </diagram>
</mxfile>
